<svg width="56" height="56" viewBox="0 0 56 56" fill="none" xmlns="http://www.w3.org/2000/svg">
<path d="M27.9437 56H28.0563C43.493 56 56 43.5242 56 28C56 12.4758 43.5493 0 28.0563 0H27.9437C12.4507 0 0 12.4758 0 28C0 43.5242 12.507 56 27.9437 56Z" fill="#00FFFF"/>
<path d="M27.9717 53.1288H28.028C43.69 53.1288 54.3942 42.8546 54.3942 29.0239C54.3942 15.1933 42.6759 1.75781 28.028 1.75781H27.9717C13.3238 1.75781 1.60547 14.5723 1.60547 29.0239C1.60547 43.4755 12.3097 53.1288 27.9717 53.1288Z" fill="#00EDED"/>
<path d="M29.1303 50.2828C46.3698 50.2828 52.7923 40.9118 52.7923 29.9602C52.7923 14.9441 40.6796 3.48438 28.0036 3.48438C15.3275 3.48438 3.21484 14.9441 3.21484 29.9602C3.21484 40.9118 9.63738 50.2828 26.8768 50.2828H29.1303Z" fill="#00DCDC"/>
<path d="M32.34 47.4115H23.6639C8.95973 47.4115 4.73438 39.5083 4.73438 31.1535C4.73438 18.0567 15.7766 5.24219 27.9456 5.24219H28.0583C40.2273 5.24219 51.2696 18.0567 51.2696 31.1535C51.2696 39.5083 47.0442 47.4115 32.34 47.4115Z" fill="#00CACA"/>
<path d="M17.4652 44.7544C21.0708 44.7544 24.3948 44.5286 27.944 44.5286H28.0567C31.606 44.5286 34.93 44.7544 38.5356 44.7544C45.8595 44.7544 49.7469 38.7705 49.7469 31.3754C49.7469 20.6496 38.8173 6.98828 28.0567 6.98828H27.944C17.1835 6.98828 6.25391 20.6496 6.25391 31.3754C6.25391 38.7705 10.1412 44.7544 17.4652 44.7544Z" fill="#00B8B8"/>
<path d="M16.5058 42.8915C19.6044 42.8915 23.041 41.706 27.9425 41.706H28.0551C32.9565 41.706 36.3932 42.8915 39.4917 42.8915C45.4072 42.8915 48.2241 38.0367 48.2241 32.448C48.2241 26.8592 45.0129 20.7625 41.5763 16.8109C38.365 13.0851 33.9143 8.73828 28.0551 8.73828H27.9425C22.0833 8.73828 17.6326 13.0851 14.4213 16.8109C10.9847 20.7625 7.77344 26.6334 7.77344 32.448C7.77344 38.2625 10.5903 42.8915 16.5058 42.8915Z" fill="#00A6A6"/>
<path d="M15.4394 41.1997C18.9887 41.1997 22.707 38.7158 27.9464 38.7158H28.0591C33.2985 38.7158 37.0168 41.1997 40.5661 41.1997C44.3971 41.1997 46.7633 37.4739 46.7633 33.0142C46.7633 27.7078 43.2704 21.6675 39.7774 17.7158C36.1154 13.5949 32.6788 10.4336 28.0591 10.4336H27.9464C23.3267 10.4336 19.8901 13.5949 16.2281 17.7158C12.7351 21.6675 9.24219 27.7078 9.24219 33.0142C9.24219 37.4739 11.6084 41.1997 15.4394 41.1997Z" fill="#009494"/>
<path d="M15.4606 39.7828C18.7282 39.7828 22.3902 35.9441 27.7986 35.9441H28.193C33.6015 35.9441 37.2634 39.7828 40.531 39.7828C43.4043 39.7828 45.3198 36.9037 45.3198 33.7424C45.3198 29.5086 41.9395 23.807 39.2353 20.4763C36.2493 16.7505 32.4747 12.2344 28.193 12.2344H27.7986C23.5169 12.2344 19.7423 16.7505 16.7564 20.4763C14.0522 23.807 10.6719 29.5086 10.6719 33.7424C10.6719 36.9037 12.5874 39.7828 15.4606 39.7828Z" fill="#008383"/>
<path d="M27.7769 33.1058C24.8473 33.1058 22.3121 34.8558 19.9459 36.38C17.8051 37.7349 16.7347 38.3558 15.5516 38.3558C13.5797 38.3558 12.0586 36.6623 12.0586 34.2349C12.0586 30.1704 16.453 24.2429 18.9318 21.0252C21.2417 18.0333 24.1149 13.9688 27.8332 13.9688H28.1713C31.8896 13.9688 34.7628 18.0333 37.0727 21.0252C39.5516 24.2429 43.9459 30.1704 43.9459 34.2349C43.9459 36.6623 42.4248 38.3558 40.453 38.3558C39.2699 38.3558 38.1994 37.7349 36.0586 36.38C33.6924 34.8558 31.1572 33.1058 28.2276 33.1058H27.7769Z" fill="#007171"/>
<path d="M27.9955 15.7305C25.4603 15.7305 24.2209 17.2547 22.0237 20.1901C19.3195 23.8595 16.6153 27.8676 14.8688 30.5772C13.6293 32.553 13.3477 33.5127 13.3477 34.303C13.3477 35.9401 14.4744 36.9563 15.9392 36.9563C17.235 36.9563 18.1927 36.1659 20.0519 34.6418C22.5871 32.4966 25.0096 30.2385 27.9955 30.2385C30.9815 30.2385 33.404 32.4966 35.9392 34.6418C37.7984 36.1659 38.7561 36.9563 40.0519 36.9563C41.5167 36.9563 42.6434 35.9401 42.6434 34.303C42.6434 33.5127 42.3617 32.553 41.1223 30.5772C39.3758 27.8676 36.6716 23.8595 33.9674 20.1901C31.7702 17.2547 30.5308 15.7305 27.9955 15.7305Z" fill="black"/>
<path d="M41.7362 31.6009C39.4073 27.9104 36.7069 23.915 33.9769 20.2299C31.7961 17.2867 30.7031 15.7598 28.0215 15.7598H27.9704C25.2889 15.7598 24.1958 17.284 22.015 20.2299C19.2877 23.915 16.5846 27.9104 14.2558 31.6009C13.4911 32.8121 12.4977 35.3156 14.5115 36.5674C15.0365 36.8938 15.5212 37.0287 15.9815 37.0287C17.1285 37.0287 18.1139 36.1816 19.1612 35.3156C22.5481 32.5154 25.0977 30.2844 27.9704 30.2844H28.0188C30.8915 30.2844 33.4439 32.5127 36.8281 35.3156C37.8754 36.1816 38.8608 37.0287 40.0077 37.0287C40.4681 37.0287 40.9527 36.8911 41.4777 36.5674C43.4916 35.3156 42.4981 32.8148 41.7335 31.6009H41.7362Z" fill="black"/>
</svg>
