<svg width="58" height="61" viewBox="0 0 58 61" fill="none" xmlns="http://www.w3.org/2000/svg">
  <path
    d="M25.8286 43.9247H54.6224C56.3895 40.4498 57.4902 36.5566 57.751 32.4617H32.6361C31.9407 37.1045 29.4206 41.1707 25.8286 43.9247Z"
    fill="#0575D5"
  />
  <path
    d="M25.8286 15.6299C29.8424 18.7094 32.5087 23.4594 32.7984 28.8341H57.751C57.4612 24.0406 56.0266 19.552 53.7227 15.6299H25.8286Z"
    fill="#0575D5"
  />
  <path
    d="M14.9421 11.8311H51.2202C45.7886 5.20459 37.5107 0.974609 28.2305 0.974609C16.2927 0.974609 5.99605 7.99089 1.30518 18.0966C4.58733 14.2709 9.48153 11.8311 14.9421 11.8311Z"
    fill="#0575D5"
  />
  <path
    d="M14.9812 47.6338C8.71863 47.6338 3.21168 44.4292 0.000488281 39.5718C3.82194 51.5197 15.0393 60.1762 28.2763 60.1762C38.3022 60.1762 47.1511 55.2172 52.5273 47.6338H14.9812Z"
    fill="#0575D5"
  />
  <path
    d="M12.0454 22.9575C12.0454 25.5614 9.93339 27.6733 7.32957 27.6733C4.72575 27.6733 2.61377 25.5614 2.61377 22.9575C2.61377 20.3537 4.72575 18.2417 7.32957 18.2417C9.93339 18.2417 12.0454 20.3537 12.0454 22.9575Z"
    fill="#0575D5"
  />
</svg>
